# xmcd
#
# Track frame offsets:
#	150
#	18912
#	40412
#	59250
#	79258
#	101034
#	124331
#	144627
#	173893
#	193719
#	216245
#	238983
#	258623
#
# Disc length: 3732 seconds
#
# Revision: 1
# Processed by: cddbd v1.5.2PL0 Copyright (c) Steve Scherf et al.
# Submitted via: EZCDAudioConverter 8.0.2.1
#
DISCID=c60e920d
DTITLE=Thanh Lam, Đàm Vĩnh Hưng - Sa Mạc Tình Yêu
DYEAR=2011
DGENRE=World Pop
TTITLE0=Đàm Vĩnh Hưng - Tình đẹp như mơ
TTITLE1=Thanh Lam - Sa Mạc Tình Yêu
TTITLE2=Thanh Lam - Một mai em đi
TTITLE3=Đàm Vĩnh Hưng - Bài ca tình nhớ
TTITLE4=Thanh Lam, Đàm Vĩnh Hưng - Tình tiếc nuối
TTITLE5=Thanh Lam - Nỗi đau dịu dàng
TTITLE6=Đàm Vĩnh Hưng - Rồi mai tôi đưa em đi
TTITLE7=Đàm Vĩnh Hưng - Ngăn cách
TTITLE8=Thanh Lam - Trái đất còn riêng mình ta
TTITLE9=Thanh Lam, Đàm Vĩnh Hưng - Ngày em đi
TTITLE10=Thanh Lam - Tuổi xa người
TTITLE11=Đàm Vĩnh Hưng - Trái tim sỏi đá
TTITLE12=Thanh Lam - Ngựa ô thương nhớ
EXTD=
EXTT0=
EXTT1=
EXTT2=
EXTT3=
EXTT4=
EXTT5=
EXTT6=
EXTT7=
EXTT8=
EXTT9=
EXTT10=
EXTT11=
EXTT12=
PLAYORDER=
